<svg xmlns="http://www.w3.org/2000/svg" viewBox="0 0 200 240" width="200" height="240">
  <defs>
    <linearGradient id="bg" x1="0%" y1="0%" x2="0%" y2="100%">
      <stop offset="0%" style="stop-color:#0E4C86"/>
      <stop offset="100%" style="stop-color:#082A4D"/>
    </linearGradient>
  </defs>
  <!-- Shield shape -->
  <path d="M100 10 L185 45 L185 120 Q185 190 100 230 Q15 190 15 120 L15 45 Z" fill="url(#bg)" stroke="#1FA855" stroke-width="3"/>
  <!-- Inner border -->
  <path d="M100 22 L175 52 L175 118 Q175 182 100 218 Q25 182 25 118 L25 52 Z" fill="none" stroke="#ffffff30" stroke-width="1.5"/>
  <!-- DI letters -->
  <text x="100" y="115" text-anchor="middle" font-family="Oswald, sans-serif" font-weight="700" font-size="56" fill="#FFFFFF" letter-spacing="2">DI</text>
  <!-- Academy text -->
  <text x="100" y="155" text-anchor="middle" font-family="Inter, sans-serif" font-weight="700" font-size="14" fill="#1FA855" letter-spacing="3" text-transform="uppercase">ACADEMY</text>
  <!-- Star decoration -->
  <polygon points="100,60 104,72 117,72 107,80 110,92 100,84 90,92 93,80 83,72 96,72" fill="#1FA855"/>
  <!-- Bottom line -->
  <line x1="60" y1="170" x2="140" y2="170" stroke="#ffffff40" stroke-width="1"/>
  <text x="100" y="190" text-anchor="middle" font-family="Inter, sans-serif" font-weight="600" font-size="10" fill="#ffffff80" letter-spacing="2">DEPORTIVO ITALIA</text>
</svg>
